<svg version="1.0" xmlns="http://www.w3.org/2000/svg"
     width="300pt" height="363pt" viewBox="0 0 300 363"
     preserveAspectRatio="xMidYMid meet">
  <g transform="translate(0,363) scale(0.1,-0.1)"
     fill="white" stroke="white" stroke-width="2">
     
    <path d="M1285 3610 c-8 -26 11 -60 34 -60 ..." />
    <path d="M1383 3619 c9 -5 17 -17 17 -24 ..." />
    <path d="M1306 2965 c-42 -36 -76 -71 ..." />
 <path d="M1285 3610 c-8 -26 11 -60 34 -60 10 0 24 -7 31 -15 9 -11 8 -19 -7
-39 -10 -14 -21 -26 -26 -26 -4 0 -17 -11 -29 -26 -13 -14 -45 -40 -73 -59
-28 -18 -57 -44 -64 -58 -7 -14 -23 -29 -36 -35 -12 -6 -39 -25 -59 -43 -28
-24 -36 -38 -34 -58 6 -49 68 -32 139 38 58 59 204 187 218 192 14 6 16 -6 17
-97 0 -57 -1 -104 -4 -104 -2 0 -17 8 -34 18 -28 16 -30 16 -44 -2 -8 -11 -14
-34 -14 -52 0 -26 6 -37 30 -51 17 -9 30 -20 30 -23 0 -13 -129 -140 -143
-140 -17 0 -60 -41 -143 -136 -31 -35 -71 -73 -88 -84 -18 -11 -41 -35 -52
-55 -10 -19 -21 -35 -25 -35 -3 0 -36 -29 -73 -65 -37 -36 -73 -65 -81 -65 -8
0 -19 9 -25 21 -9 16 -19 19 -48 17 -34 -3 -37 -6 -40 -38 -3 -28 2 -39 23
-56 l27 -22 -46 -43 c-50 -47 -56 -67 -28 -92 27 -24 37 -22 84 22 40 39 58
44 58 17 0 -7 11 -19 25 -26 14 -7 25 -17 25 -22 0 -18 50 -58 73 -58 23 0 69
-42 99 -91 9 -14 38 -38 65 -52 42 -22 48 -29 45 -53 -2 -15 -13 -35 -25 -43
-12 -9 -39 -31 -59 -49 -31 -28 -40 -32 -57 -22 -12 6 -21 15 -21 20 0 6 -16
10 -35 10 -29 0 -37 -5 -45 -25 -10 -26 -4 -55 11 -55 4 0 13 -9 19 -20 9 -17
7 -26 -15 -52 -23 -27 -24 -33 -12 -51 28 -43 44 -44 81 -8 l35 34 22 -37 c12
-20 35 -44 53 -52 35 -18 106 -83 106 -97 0 -12 -84 -113 -125 -149 -61 -55
-249 -235 -310 -295 -34 -35 -66 -63 -70 -63 -9 0 -44 -42 -45 -54 0 -5 -8
-18 -17 -28 -16 -18 -15 -20 10 -45 l26 -27 48 27 c26 14 50 35 53 46 6 25 77
101 94 101 7 0 37 25 65 55 29 30 65 62 82 70 16 9 29 20 29 26 0 13 219 229
231 229 4 0 35 -27 69 -60 34 -33 67 -60 74 -60 7 0 21 -10 32 -21 19 -21 19
-22 -10 -43 -17 -11 -51 -42 -77 -69 -25 -26 -53 -47 -61 -47 -17 0 -78 -61
-78 -77 0 -6 -11 -20 -25 -31 -14 -11 -25 -23 -25 -27 0 -21 -183 -218 -212
-228 -21 -8 -25 -79 -6 -95 20 -15 92 21 124 64 55 73 139 156 175 175 24 12
41 30 48 50 6 17 40 61 76 98 36 36 81 83 101 104 42 44 59 46 78 9 8 -16 36
-46 61 -66 49 -41 274 -254 315 -298 8 -10 26 -27 38 -40 13 -13 34 -39 46
-58 14 -23 35 -39 60 -48 55 -18 70 -3 62 61 -5 45 -12 55 -88 131 -46 45 -92
93 -104 107 -12 13 -41 36 -66 51 -25 15 -56 44 -69 63 -13 19 -31 37 -40 40
-15 5 -127 112 -158 149 -15 20 -8 30 89 123 l54 53 49 -48 c27 -26 67 -71 88
-99 22 -29 46 -53 55 -53 16 0 104 -84 104 -99 0 -5 28 -28 61 -52 92 -66 129
-99 155 -141 46 -72 98 -118 133 -118 13 0 41 53 41 78 0 10 -33 48 -76 88
-128 116 -290 277 -310 309 -32 50 -57 75 -74 75 -16 0 -140 114 -140 129 0 9
91 101 100 101 4 0 15 16 26 35 10 19 25 37 32 40 12 5 45 -16 92 -59 23 -20
66 -28 78 -13 6 7 13 24 17 39 8 31 -21 64 -82 93 l-35 17 41 42 c42 43 53 80
29 104 -22 22 -42 13 -86 -35 -27 -31 -45 -43 -48 -35 -3 7 -25 26 -49 42 -23
16 -45 40 -49 53 -3 13 -17 29 -31 35 l-26 12 21 30 c11 16 34 37 50 47 17 9
30 21 30 25 0 4 14 14 30 23 17 9 30 21 30 28 1 13 99 117 153 159 27 22 37
25 45 15 6 -7 31 -18 55 -25 50 -15 87 -4 87 24 0 18 -56 78 -80 86 -12 4 -7
13 19 41 39 42 38 76 -5 96 -24 10 -29 8 -58 -24 -34 -37 -60 -44 -73 -21 -4
8 -30 32 -58 53 -27 22 -63 61 -79 86 -17 26 -35 47 -41 47 -15 0 -62 48 -89
90 -12 20 -35 39 -53 45 -38 13 -70 40 -89 76 -7 15 -32 37 -56 49 -37 19
-138 113 -138 128 0 4 19 22 41 42 33 28 40 40 35 57 -10 30 -40 37 -70 17
l-26 -16 3 84 2 84 35 -22 c50 -33 117 -85 143 -112 12 -13 34 -30 50 -38 15
-8 27 -20 27 -28 0 -7 12 -18 26 -24 30 -14 59 -2 69 29 5 16 -8 34 -65 90
-39 38 -75 69 -79 69 -4 0 -23 16 -42 36 -18 19 -50 45 -69 57 -36 22 -56 40
-79 69 -12 16 -9 22 18 47 30 28 41 61 21 61 -5 0 -10 -8 -10 -17 0 -9 -12
-30 -27 -45 l-27 -28 21 -28 c11 -15 40 -42 64 -60 56 -42 95 -76 193 -166
l79 -73 -22 -22 c-18 -18 -24 -19 -41 -9 -11 7 -20 18 -20 25 0 7 -13 19 -30
28 -16 8 -37 27 -46 40 -9 14 -22 25 -28 25 -7 0 -23 11 -36 25 -13 14 -42 34
-66 45 -23 12 -45 27 -48 35 -14 37 -24 8 -25 -70 0 -47 -3 -94 -6 -105 -8
-25 -4 -25 38 -1 33 18 67 14 67 -9 0 -12 -37 -50 -49 -50 -5 0 -16 -11 -24
-24 -15 -23 -14 -25 26 -67 53 -55 111 -99 130 -99 8 0 20 -14 27 -30 16 -38
64 -79 100 -87 20 -4 35 -18 53 -52 15 -27 39 -53 60 -64 19 -10 47 -39 63
-64 16 -25 51 -63 79 -83 27 -21 58 -47 68 -58 23 -25 43 -19 77 21 28 32 62
32 74 1 6 -17 -29 -74 -45 -74 -22 0 -6 -37 26 -57 19 -13 39 -32 45 -43 9
-17 7 -22 -14 -32 -17 -7 -30 -8 -38 -1 -7 6 -25 13 -40 17 -16 3 -28 11 -28
16 0 18 -22 10 -59 -20 -61 -50 -121 -113 -147 -152 -13 -21 -29 -38 -35 -38
-13 0 -45 -27 -101 -84 -29 -30 -35 -42 -27 -53 6 -7 17 -13 25 -13 7 0 19
-10 25 -22 6 -13 37 -47 67 -77 l56 -54 47 53 c41 47 50 52 63 41 25 -21 19
-45 -24 -87 -22 -21 -40 -44 -40 -51 0 -7 15 -19 33 -28 60 -29 87 -57 80 -87
-4 -22 -11 -28 -33 -28 -15 0 -35 9 -45 20 -10 11 -22 20 -26 20 -4 0 -20 12
-35 27 l-27 27 -26 -31 c-41 -49 -65 -75 -115 -123 -25 -25 -46 -47 -46 -51 0
-15 128 -133 157 -146 19 -8 44 -31 59 -56 26 -40 144 -162 229 -235 22 -19
68 -61 103 -95 66 -63 71 -77 39 -122 -14 -19 -15 -19 -51 9 -20 15 -52 50
-70 78 -32 46 -61 74 -156 148 -74 57 -90 72 -90 85 0 15 -71 75 -88 75 -6 0
-23 17 -39 37 -30 42 -149 163 -159 163 -10 0 -101 -85 -138 -129 l-35 -41 25
-27 c13 -14 24 -29 24 -33 0 -3 18 -19 39 -36 22 -16 45 -39 52 -51 7 -13 20
-23 29 -23 9 0 31 -19 49 -43 17 -24 57 -58 87 -76 29 -19 54 -37 54 -42 0
-11 131 -143 154 -156 10 -5 21 -27 26 -49 15 -63 13 -74 -15 -74 -41 0 -70
19 -94 64 -12 24 -33 49 -45 55 -12 7 -30 25 -40 41 -9 16 -31 39 -49 51 -18
12 -62 52 -98 88 -94 93 -180 171 -189 171 -4 0 -13 12 -19 28 -6 15 -21 33
-32 40 -17 11 -25 9 -55 -14 -19 -15 -45 -45 -59 -68 -13 -22 -41 -52 -62 -66
-21 -14 -50 -47 -64 -73 -16 -29 -42 -58 -70 -76 -40 -25 -68 -54 -160 -164
-36 -42 -84 -71 -105 -63 -21 8 -18 65 4 73 27 10 212 209 212 229 0 3 11 15
25 26 14 11 25 25 25 31 0 18 59 77 76 77 9 0 39 24 68 53 29 28 64 59 77 68
21 15 22 19 11 43 -6 14 -24 31 -39 37 -14 5 -45 29 -68 52 -86 85 -82 83
-106 61 -12 -10 -63 -61 -113 -112 -107 -109 -109 -112 -202 -197 -39 -36 -75
-65 -81 -65 -15 0 -93 -87 -93 -104 0 -8 -20 -26 -45 -39 -44 -25 -45 -25 -67
-7 l-23 19 23 16 c12 9 22 22 22 29 0 14 8 22 112 121 237 223 279 263 312
290 19 17 36 35 36 40 0 6 17 26 36 45 59 58 60 64 12 113 -24 25 -57 51 -74
60 -17 9 -43 35 -59 58 l-28 43 -28 -32 c-31 -34 -48 -39 -67 -20 -18 18 -15
30 14 61 l26 29 -27 28 c-35 36 -32 74 8 78 15 2 27 -1 27 -6 0 -5 10 -16 23
-25 22 -14 25 -13 61 19 21 19 41 34 45 34 19 1 50 42 56 73 7 36 7 36 -49 64
-31 15 -58 34 -61 43 -10 32 -81 100 -103 100 -22 0 -72 40 -72 58 0 5 -11 14
-25 20 -14 6 -25 20 -25 30 0 10 -3 22 -6 25 -8 7 -53 -23 -89 -59 -25 -25
-49 -24 -60 4 -4 10 9 30 40 59 25 24 45 50 45 57 0 8 -12 21 -26 30 -18 13
-24 24 -22 44 4 38 42 42 74 7 24 -26 25 -27 52 -9 15 9 62 54 104 98 97 101
94 98 148 149 25 24 74 74 110 113 36 38 80 76 97 83 18 7 49 34 70 60 21 25
47 54 58 63 20 18 20 18 -5 38 -14 11 -31 20 -37 20 -16 0 -17 44 -2 71 10 20
10 20 45 0 19 -12 37 -21 39 -21 1 0 3 59 3 130 0 123 -2 130 -18 115 -9 -8
-20 -15 -24 -15 -5 0 -31 -22 -60 -49 -221 -208 -257 -235 -273 -196 -7 19 18
47 74 86 23 16 50 43 59 59 10 16 31 35 47 41 15 7 58 40 94 74 78 75 80 98
11 119 -21 6 -25 52 -5 59 7 3 6 6 -5 6 -9 1 -19 -8 -23 -19z"/>
<path d="M1383 3619 c9 -5 17 -17 17 -24 0 -24 39 -17 68 12 26 25 26 26 2 10
-43 -29 -51 -30 -66 -8 -8 11 -21 21 -27 21 -7 0 -4 -5 6 -11z"/>
<path d="M1306 2965 c-42 -36 -76 -71 -76 -76 0 -12 -148 -159 -161 -159 -5 0
-15 -12 -22 -27 -6 -15 -60 -75 -119 -133 -60 -59 -108 -111 -108 -118 0 -17
82 -90 109 -97 27 -7 71 -49 71 -68 0 -7 26 -32 57 -57 31 -25 69 -57 85 -72
16 -16 36 -28 44 -28 13 0 194 163 202 182 6 15 -63 90 -95 103 -18 8 -33 19
-33 24 0 6 -18 20 -41 31 -36 19 -40 24 -34 48 12 49 27 55 96 43 4 0 9 -11
13 -23 6 -23 105 -138 118 -138 4 0 7 28 7 63 -1 34 1 87 3 117 3 30 1 63 -4
73 -5 9 -8 65 -8 125 2 159 -4 228 -20 245 -4 5 -42 -21 -84 -58z m90 -120 c1
-60 5 -179 7 -262 2 -84 1 -153 -3 -153 -11 0 -66 64 -96 111 -23 38 -28 40
-67 37 -35 -2 -44 -8 -55 -31 -18 -36 -8 -74 21 -82 12 -4 36 -20 52 -35 17
-15 39 -31 50 -34 11 -4 32 -24 46 -44 l26 -38 -94 -87 c-88 -83 -113 -99
-113 -77 0 5 -25 28 -55 50 -69 51 -115 96 -115 112 0 16 -49 58 -69 58 -9 1
-36 19 -60 41 -44 39 -44 39 -25 61 30 33 135 137 165 162 14 12 32 33 38 45
7 12 40 48 73 79 34 31 70 68 82 80 12 13 55 57 96 98 l75 74 9 -27 c5 -16 10
-77 12 -138z"/>
<path d="M1474 2938 c3 -40 6 -80 6 -88 1 -8 -2 -27 -5 -42 -6 -22 -1 -32 26
-58 18 -16 39 -30 46 -30 8 0 17 -10 22 -23 5 -12 28 -41 52 -64 l42 -42 36
27 c20 15 41 34 47 41 10 13 15 13 38 -2 26 -17 35 -37 17 -37 -5 0 -28 -18
-51 -39 l-43 -40 52 -47 c36 -33 51 -54 49 -68 -5 -32 -24 -25 -78 28 -48 47
-50 48 -80 36 -17 -7 -38 -26 -47 -42 -10 -15 -35 -40 -55 -55 -46 -31 -58
-66 -33 -93 10 -11 25 -22 35 -25 9 -3 22 -17 28 -30 6 -14 18 -25 26 -25 9 0
33 -24 55 -54 23 -30 45 -57 50 -60 5 -3 26 14 48 39 21 25 43 45 50 45 13 0
159 146 197 199 14 18 34 40 45 48 33 23 21 93 -16 93 -9 0 -32 17 -52 38 -20
20 -48 45 -63 54 -14 10 -41 38 -59 63 -18 25 -40 45 -50 45 -10 0 -27 12 -39
28 -25 31 -281 252 -293 252 -5 0 -6 -33 -3 -72z m107 -28 c4 0 33 -25 65 -55
33 -30 66 -57 74 -60 9 -3 24 -18 33 -35 10 -16 29 -33 43 -36 14 -4 38 -26
55 -51 17 -24 44 -52 60 -62 15 -9 38 -30 50 -45 12 -16 37 -35 55 -42 41 -17
54 -52 28 -73 -11 -9 -32 -34 -49 -56 -43 -58 -183 -195 -199 -195 -7 0 -26
-18 -41 -40 -15 -22 -32 -40 -37 -40 -4 0 -23 20 -40 45 -18 25 -35 45 -38 45
-3 0 -34 27 -69 59 -71 66 -71 78 -7 122 19 13 41 34 48 47 7 13 25 30 40 38
26 13 28 12 74 -36 48 -51 77 -62 88 -34 12 32 5 49 -40 91 l-47 43 48 43 c42
39 46 46 36 65 -15 28 -58 39 -74 20 -7 -8 -27 -25 -45 -38 l-33 -22 -40 43
c-21 23 -39 48 -39 56 0 7 -8 16 -17 20 -10 3 -30 15 -46 25 -24 17 -27 26
-26 66 0 26 -2 78 -6 116 l-8 68 49 -46 c27 -25 52 -46 55 -46z"/>
<path d="M1484 2560 c1 -85 5 -130 12 -130 6 0 21 12 35 26 13 14 38 34 55 45
47 29 50 48 14 77 -16 13 -30 30 -30 37 0 8 -12 22 -27 32 -16 10 -32 23 -36
30 -19 31 -25 5 -23 -117z m86 33 c11 -18 24 -33 30 -33 20 0 9 -30 -17 -47
-16 -9 -40 -28 -55 -42 l-28 -25 -1 25 c-1 13 -2 63 -3 110 l-1 86 28 -20 c15
-12 36 -36 47 -54z"/>
<path d="M1334 2165 c-32 -30 -64 -55 -70 -55 -6 0 -18 -7 -25 -16 -12 -15 -6
-24 51 -76 36 -32 77 -68 91 -78 l27 -20 -3 145 c-1 80 -4 147 -7 150 -2 2
-31 -20 -64 -50z m61 -104 l2 -121 -66 57 c-89 78 -96 88 -63 100 9 4 39 26
66 50 27 24 51 41 53 39 3 -3 6 -59 8 -125z"/>
<path d="M1485 2209 c-3 -8 -3 -41 -1 -74 3 -33 7 -90 9 -127 7 -94 12 -98 62
-46 23 23 54 52 68 63 15 11 27 24 27 29 0 5 -36 44 -80 88 -52 53 -82 76 -85
67z m45 -42 c0 -4 25 -31 55 -59 52 -48 54 -52 39 -70 -10 -10 -23 -18 -30
-18 -7 0 -27 -18 -44 -40 -18 -23 -34 -39 -37 -36 -3 2 -6 44 -9 93 -2 48 -6
105 -10 126 -6 37 -5 38 15 25 12 -7 21 -16 21 -21z"/>
<path d="M1147 1980 c-15 -16 -31 -30 -36 -30 -5 0 -28 -22 -51 -49 -41 -50
-41 -50 -20 -68 11 -10 48 -44 83 -76 100 -94 104 -97 116 -97 6 0 16 10 22
23 5 12 32 36 60 52 27 17 56 40 64 52 14 21 13 25 -20 61 -19 21 -52 47 -73
56 -23 11 -52 36 -71 62 -17 24 -34 44 -39 44 -5 0 -21 -13 -35 -30z m138 -86
c63 -33 103 -80 88 -103 -5 -9 -33 -29 -61 -46 -28 -16 -56 -41 -62 -54 l-11
-24 -22 20 c-12 11 -48 45 -80 77 -31 31 -61 56 -66 56 -5 0 -14 7 -21 15 -10
11 -6 22 17 54 15 23 35 43 44 46 8 3 28 19 44 35 l29 30 25 -40 c16 -24 45
-50 76 -66z"/>
<path d="M1685 1946 c-14 -19 -39 -39 -55 -45 -25 -8 -90 -81 -90 -100 0 -7
34 -42 119 -121 l54 -51 27 26 c14 14 31 25 37 25 6 0 37 29 69 65 53 61 56
67 44 89 -17 32 -115 116 -135 116 -8 0 -18 7 -21 15 -9 23 -20 18 -49 -19z
m65 -4 c37 -19 140 -110 140 -123 0 -18 -110 -129 -127 -129 -7 0 -20 -12 -29
-26 l-17 -26 -48 49 c-27 26 -62 60 -79 75 -16 15 -30 34 -30 42 0 22 58 85
85 92 12 3 32 19 44 35 12 16 23 29 24 29 2 0 18 -8 37 -18z"/>
<path d="M1400 1690 c-30 -31 -67 -64 -82 -73 -39 -22 -36 -51 9 -82 21 -14
43 -25 50 -25 7 0 15 -11 19 -24 3 -13 21 -38 40 -57 34 -32 34 -32 56 -13 13
10 26 24 30 29 19 28 76 82 101 94 15 8 27 18 27 22 0 13 -64 79 -77 79 -7 0
-13 4 -13 9 0 9 -92 102 -100 100 -3 -1 -30 -27 -60 -59z m157 -46 l84 -85
-31 -12 c-16 -6 -30 -15 -30 -18 0 -11 -99 -109 -110 -109 -12 0 -49 41 -64
72 -6 13 -27 31 -47 40 -68 32 -69 43 -8 96 30 26 65 59 79 74 14 15 29 27 34
28 5 0 47 -39 93 -86z"/>
<path d="M1375 1133 c-11 -3 -25 -9 -31 -14 -17 -14 -4 -62 23 -84 l25 -20
-51 -50 c-28 -28 -51 -54 -51 -59 0 -5 -25 -33 -55 -61 -30 -29 -55 -57 -55
-63 0 -6 -10 -19 -23 -29 -12 -10 -31 -31 -42 -47 -11 -16 -24 -34 -29 -41
-11 -14 28 -75 47 -75 7 0 21 13 31 29 11 16 31 36 46 44 14 9 43 42 65 74 21
32 50 67 63 77 13 11 32 32 41 47 16 27 17 21 13 -134 -4 -158 -10 -187 -38
-187 -7 0 -18 -10 -25 -22 -6 -13 -27 -39 -46 -59 -38 -40 -43 -83 -11 -103
14 -8 25 -2 59 34 l43 45 7 -29 c10 -35 11 -175 3 -269 -6 -62 -4 -70 20 -102
31 -41 35 -42 66 -15 16 14 25 35 28 63 4 42 6 229 3 277 0 14 -1 64 -1 112
l1 86 37 32 c107 90 117 116 55 148 -18 10 -26 8 -52 -14 l-31 -26 -1 24 c-1
12 -3 56 -4 96 -3 74 8 96 20 42 5 -21 19 -39 44 -54 20 -13 68 -53 106 -90
100 -98 121 -104 145 -45 13 31 9 41 -47 96 -13 12 -23 29 -23 37 0 8 -22 28
-49 44 -26 17 -69 57 -95 90 -26 33 -57 63 -69 66 -22 6 -21 6 7 29 l28 23
-18 39 c-23 49 -59 60 -73 22 -15 -38 -29 -41 -46 -7 -15 30 -22 32 -60 23z
m64 -52 c12 -20 39 -7 51 24 15 39 39 29 55 -23 5 -18 2 -27 -14 -38 -29 -21
-26 -39 9 -54 17 -7 30 -17 30 -23 0 -21 90 -114 128 -131 25 -11 43 -27 46
-41 3 -13 22 -39 41 -58 32 -32 34 -38 24 -61 -7 -15 -21 -26 -31 -26 -10 0
-51 32 -90 71 -39 39 -85 79 -102 90 -17 10 -40 35 -51 55 -34 64 -45 55 -44
-33 0 -43 4 -97 7 -121 l7 -43 29 30 c34 36 61 40 76 11 8 -16 6 -26 -12 -50
-12 -16 -25 -30 -30 -30 -4 0 -23 -15 -42 -32 l-34 -33 -1 -115 c0 -63 -1
-158 0 -210 0 -108 -9 -189 -24 -207 -34 -45 -80 23 -72 107 9 99 6 294 -4
317 -1 2 -25 -19 -53 -46 -41 -38 -56 -47 -66 -39 -27 23 -10 51 93 158 l34
36 5 167 c3 92 8 172 11 177 3 6 1 10 -4 10 -6 0 -11 -4 -11 -9 0 -5 -27 -39
-60 -75 -33 -37 -72 -85 -86 -107 -14 -22 -38 -48 -54 -57 -15 -9 -36 -29 -45
-45 -16 -27 -18 -28 -36 -11 -23 20 -25 60 -4 68 8 3 15 12 15 20 0 8 14 24
30 36 17 12 30 28 30 36 0 8 4 14 10 14 5 0 15 12 23 26 7 14 24 31 37 37 14
7 29 22 35 34 6 12 32 44 58 73 26 28 47 56 47 61 0 4 -11 16 -25 25 -17 11
-25 25 -25 44 0 24 5 29 28 32 26 3 42 -7 61 -41z"/>
    
  </g>

  <style>
    path {
      stroke-dasharray: 3000;
      stroke-dashoffset: 3000;
      fill-opacity: 0;
      animation: draw 4s linear forwards,
                 fillIn 2s ease forwards 4s; /* starts after drawing */
    }

    @keyframes draw {
      to {
        stroke-dashoffset: 0;
      }
    }

    @keyframes fillIn {
      to {
        fill-opacity: 1;
      }
    }
  </style>
</svg>
